<svg version="1.1" id="call-out" xmlns="http://www.w3.org/2000/svg" xmlns:xlink="http://www.w3.org/1999/xlink" x="0px" y="0px" viewBox="0 0 156 175.8" style="enable-background:new 0 0 156 175.8;" xml:space="preserve">
<style type="text/css">
	.st0{fill-rule:evenodd;clip-rule:evenodd;fill:#EB0A1E;}
</style>
<g>
	<path class="st0" d="M107.9,60.5c0-8,0-15.9,0-24.5c-7.2,0-14.3-0.2-21.4,0.1c-4.8,0.2-6.6-1.8-6.4-6.5c0.2-7,0.1-13.9,0.1-21.2
		c-24.1,0-47.8,0-71.7,0c0,46.4,0,92.7,0,139.7c7.4,0,14.8,0,22.2,0c1.7,0,3.6-0.5,4.9,0.2c1.5,0.7,3.5,2.5,3.5,3.8
		c0,1.3-2.1,3.8-3.4,3.8c-10.5,0.3-21,0.3-31.5,0c-1.4,0-2.9-2.5-3.9-4.1c-0.5-0.8-0.1-2.3-0.1-3.4c0-46.8,0-93.6,0-140.4
		C0.2,0.5,0.6,0,7.7,0c24.5,0,49-0.1,73.5,0.1c2.6,0,5.8,1.4,7.7,3.2c8.2,7.8,16.3,15.8,24,24c1.7,1.8,2.9,4.8,3,7.3
		c0.4,9.3,0.1,18.6,0.1,27.8c34.6,12.8,46.5,48.1,36.3,75.4c-10.5,28-39.8,43.5-69,36.1c-27.7-7.1-46.5-35.2-43-62.7
		C43.9,84.4,68,56.1,107.9,60.5z M148.1,118c0-27.5-22.3-49.9-49.8-50c-27.8-0.1-50.2,22.3-50.2,50c0,27.5,22.3,49.9,49.8,50
		C125.7,168.1,148.2,145.7,148.1,118z M88.1,27.6c5,0,9.1,0,12.3,0c-3.9-4-8-8.2-12.3-12.7c0,1.4,0,2.6,0,3.9
		C88.1,21.7,88.1,24.6,88.1,27.6z"></path>
	<path class="st0" d="M44,36c-6.1,0-12.3,0-18.4,0c-3,0-5.9-0.8-5.2-4.2c0.3-1.6,3.3-3.6,5.2-3.6c12.4-0.3,24.9-0.3,37.4,0
		c1.8,0,3.5,2.5,5.2,3.8c-1.7,1.3-3.4,3.7-5.2,3.8C56.6,36.3,50.3,36,44,36z"></path>
	<path class="st0" d="M44.5,46c6.1,0,12.3-0.3,18.4,0.2c1.8,0.1,3.5,2.5,5.2,3.9c-1.8,1.3-3.5,3.7-5.3,3.8
		c-12.4,0.3-24.9,0.3-37.4,0c-1.8,0-4.8-2.1-5.1-3.7c-0.7-3.4,2.3-4.2,5.2-4.2C31.9,46,38.2,46,44.5,46z"></path>
	<path class="st0" d="M34.3,72c-3.1,0-6.4,0.5-9.4-0.2c-1.8-0.4-3.2-2.4-4.8-3.7c1.5-1.4,3-3.8,4.6-3.9c6.4-0.5,12.9-0.5,19.3,0
		c1.7,0.1,3.2,2.4,4.8,3.7c-1.5,1.4-2.9,3.6-4.7,3.9C41,72.5,37.6,72,34.3,72z"></path>
	<path class="st0" d="M94.2,91.7c0-1.7-0.5-3.8,0.1-5.3c0.7-1.7,2.5-2.9,3.9-4.3c1.3,1.4,3.9,3,3.7,4.3c-0.5,4.6,1.8,6.2,5.5,7.9
		c2.4,1.1,4.4,3.5,6.1,5.7c1.8,2.1,2.2,5.1-0.7,6.3c-1.4,0.6-4.7-0.5-5.6-1.8c-2.9-4.2-6.8-5.1-11.4-4.4c-3.4,0.5-5.9,2.4-6.4,6
		c-0.5,3.7,1.9,5.5,4.9,6.5c3.3,1.1,6.7,1.9,10,3.1c6.7,2.4,10.5,7.1,10.4,13.1c-0.1,6.6-3.3,11.6-9.5,13.9
		c-2.9,1.1-3.4,2.7-3.2,5.2c0.2,2.9-0.5,5.7-3.9,5.8c-3.5,0.1-4.3-2.6-4-5.6c0.3-2.8-0.6-4.2-3.5-5.5c-3-1.4-5.6-4-7.9-6.5
		c-1.9-2-2.3-4.7,0.4-6.5c2.6-1.7,4.5-0.5,6.2,2c3.2,4.6,8.4,6.2,13,3.6c2-1.1,4-3.8,4.2-5.9c0.1-1.7-2.1-4.4-4-5.4
		c-3-1.6-6.6-2.1-9.9-3.2c-7.3-2.5-11.1-7.3-11.2-13.6c-0.1-6.4,3.6-11.3,10.6-14.1C92.7,92.5,93.2,92.2,94.2,91.7z"></path>
</g>
</svg>