<svg version="1.1" id="call-out" xmlns="http://www.w3.org/2000/svg" xmlns:xlink="http://www.w3.org/1999/xlink" x="0px" y="0px" viewBox="0 0 200.1 199.9" style="enable-background:new 0 0 200.1 199.9;" xml:space="preserve">
<style type="text/css">
	.st0{fill-rule:evenodd;clip-rule:evenodd;fill:#EB0A1E;}
</style>
<path class="st0" d="M100,199.9C46.5,200.2-1.3,156.4,0,96.8C1.2,45.4,44.1-0.1,99.9,0c55.6,0.1,100.5,45.2,100.1,100.5
	C199.7,155.5,155,200,100,199.9z M100.1,192.4c50.9,0,92.4-41.3,92.6-92c0.1-51.4-41.5-93-92.8-92.9C49.8,7.6,8,48.8,7.4,97.5
	C6.8,151,49.2,192.6,100.1,192.4z"></path>
<path class="st0" d="M98.8,14.8c38.7-2.1,75.9,26.9,84.3,66.5c1,4.7,1.4,9.6,2,14.4c0.5,5-1.8,6.6-6.5,5c-14-4.7-28-9.9-42.2-13.9
	c-16.1-4.6-32.6-8.8-49.4-5.5c-14.9,3-29.5,7.3-44.1,11.4c-7.2,2-14,5.2-21,7.8c-5,1.8-7,0.6-6.7-4.7c1.3-27.3,13.2-49,35.1-65.1
	C64.4,20.3,80.5,15.2,98.8,14.8z M176.9,91.4c-2.2-34.2-33.5-70.3-79.2-69.1c-43.4,1.1-73,36.8-74.7,69.4c0.9-0.3,1.7-0.5,2.5-0.7
	c15.7-4.9,31.3-10.2,47.1-14.7c11-3.1,22.4-4.5,33.8-3c9.6,1.2,19.3,3,28.6,5.5C149,82.5,162.9,87.1,176.9,91.4z"></path>
<path class="st0" d="M104.7,158.9c1.4-10.6,2.2-21.3,4.4-31.8c2.3-10.7,16.4-23.7,26-24.4c5.2-0.4,10.8,0.4,15.8,1.9
	c9.8,3,19.3,6.8,28.9,10.3c2.8,1,3.7,2.8,2.9,5.9c-8.1,33.1-37.2,59.3-71,63.6c-3.2,0.4-4.8-0.9-5.1-4.4c-0.4-7-0.7-14-1.1-21
	C105.3,159,105,158.9,104.7,158.9z M113.3,176.4c33.5-5.9,56.2-32.6,61.4-56.1c-10.1-3.3-20.2-6.8-30.5-9.9
	c-2.6-0.8-5.9-1.1-8.5-0.3c-9.8,3.2-16.9,9.9-19.8,19.7c-2,6.8-2.2,14.3-2.6,21.5C113,159.6,113.3,167.8,113.3,176.4z"></path>
<path class="st0" d="M92.6,163.1c0,5.5,0,11,0,16.5c0,3.8-1.5,5.3-5.3,4.6c-35.2-6.3-58.2-26.7-69.2-60.7c-0.8-2.5-0.9-4.9,1.9-6
	c9.9-3.8,19.6-8.2,29.9-10.8c19.6-4.9,38.9,7.8,40.2,30.9c0.5,8.5,1.2,16.9,1.9,25.4C92.2,163.1,92.4,163.1,92.6,163.1z M26,123.1
	c8,28.1,34.4,49.7,58.8,52.7c0-1.4,0.1-2.7,0-4.1c-0.9-12.3-1.4-24.7-2.8-37C80.3,119.6,66.2,110,51.6,114
	C42.9,116.4,34.7,120,26,123.1z"></path>
<path class="st0" d="M98.5,122.5c-11.2,0-20.3-9.2-20.2-20.2c0.1-11.1,9.4-20.2,20.4-20.1c11.1,0.1,20.1,9.2,20.1,20.4
	C118.7,113.8,109.9,122.5,98.5,122.5z M111.3,102.3c0-6.9-5.6-12.6-12.5-12.8c-6.8-0.1-13,6-12.9,12.9c0.1,7,6,12.8,13.1,12.6
	C105.8,115,111.3,109.3,111.3,102.3z"></path>
</svg>